<svg width="227" height="114" viewBox="0 0 227 114" fill="none" xmlns="http://www.w3.org/2000/svg">
<path d="M99.0924 95.3144C96.3256 95.3144 93.8886 94.8881 91.7813 94.0356C89.6741 93.183 88.0252 92.0007 86.8349 90.4886C85.6445 88.9604 85.0493 87.199 85.0493 85.2044V85.1561C85.0493 83.644 85.3952 82.2848 86.0869 81.0783C86.7786 79.8719 87.7277 78.8665 88.9341 78.0622C90.1406 77.2579 91.5239 76.7029 93.0843 76.3973V76.2525C91.0735 75.7538 89.4408 74.8289 88.1861 73.4777C86.9475 72.1104 86.3282 70.4937 86.3282 68.6278V68.5795C86.3282 66.7779 86.8671 65.1854 87.9448 63.802C89.0226 62.4025 90.5186 61.3006 92.4328 60.4963C94.3631 59.692 96.583 59.2898 99.0924 59.2898C101.602 59.2898 103.814 59.692 105.728 60.4963C107.642 61.3006 109.138 62.4025 110.216 63.802C111.31 65.1854 111.857 66.7779 111.857 68.5795V68.6278C111.857 70.4937 111.229 72.1104 109.975 73.4777C108.736 74.8289 107.111 75.7538 105.101 76.2525V76.3973C106.661 76.7029 108.044 77.2579 109.251 78.0622C110.457 78.8665 111.398 79.8719 112.074 81.0783C112.765 82.2848 113.111 83.644 113.111 85.1561V85.2044C113.111 87.199 112.516 88.9604 111.326 90.4886C110.152 92.0007 108.511 93.183 106.403 94.0356C104.296 94.8881 101.859 95.3144 99.0924 95.3144ZM99.0924 90.006C100.363 90.006 101.481 89.7808 102.446 89.3304C103.411 88.88 104.168 88.2527 104.714 87.4484C105.277 86.6441 105.559 85.7352 105.559 84.7218V84.6735C105.559 83.644 105.286 82.7271 104.739 81.9228C104.192 81.1185 103.428 80.4912 102.446 80.0408C101.481 79.5743 100.363 79.341 99.0924 79.341C97.8055 79.341 96.6715 79.5743 95.6902 80.0408C94.7251 80.4912 93.969 81.1185 93.4221 81.9228C92.8752 82.7271 92.6017 83.644 92.6017 84.6735V84.7218C92.6017 85.7352 92.8752 86.6441 93.4221 87.4484C93.9851 88.2527 94.7492 88.88 95.7143 89.3304C96.6956 89.7808 97.8216 90.006 99.0924 90.006ZM99.0924 74.0568C100.186 74.0568 101.151 73.8557 101.988 73.4536C102.824 73.0514 103.476 72.4964 103.942 71.7887C104.409 71.0648 104.642 70.2364 104.642 69.3034V69.2551C104.642 68.3221 104.401 67.5017 103.918 66.794C103.452 66.0862 102.8 65.5392 101.964 65.1532C101.127 64.751 100.17 64.55 99.0924 64.55C97.9986 64.55 97.0334 64.751 96.1969 65.1532C95.3605 65.5392 94.7009 66.0862 94.2183 66.794C93.7519 67.5017 93.5186 68.3221 93.5186 69.2551V69.3034C93.5186 70.2364 93.7519 71.0648 94.2183 71.7887C94.7009 72.4964 95.3605 73.0514 96.1969 73.4536C97.0334 73.8557 97.9986 74.0568 99.0924 74.0568ZM131.498 95.3144C129.39 95.3144 127.452 94.9444 125.683 94.2045C123.929 93.4645 122.393 92.3626 121.074 90.8988C119.771 89.4189 118.758 87.577 118.034 85.3733C117.326 83.1534 116.972 80.5636 116.972 77.6037V77.5555C116.972 73.7592 117.559 70.4937 118.733 67.7591C119.908 65.0245 121.581 62.9333 123.752 61.4856C125.94 60.0218 128.546 59.2898 131.57 59.2898C133.822 59.2898 135.849 59.692 137.651 60.4963C139.452 61.2845 140.94 62.3783 142.114 63.7778C143.305 65.1773 144.069 66.7698 144.407 68.5554L144.455 68.7967H137.264L137.192 68.5795C136.903 67.8717 136.492 67.2604 135.961 66.7457C135.447 66.2149 134.819 65.8047 134.079 65.5151C133.339 65.2095 132.495 65.0567 131.546 65.0567C129.857 65.0567 128.465 65.5473 127.372 66.5285C126.294 67.5098 125.481 68.8288 124.935 70.4857C124.388 72.1425 124.066 74.0005 123.969 76.0595C123.953 76.3008 123.937 76.5421 123.921 76.7834C123.921 77.0246 123.921 77.2659 123.921 77.5072L125.031 83.2982C125.031 84.4564 125.313 85.51 125.876 86.4591C126.439 87.3921 127.203 88.1401 128.168 88.7031C129.133 89.25 130.211 89.5235 131.401 89.5235C132.591 89.5235 133.669 89.25 134.634 88.7031C135.6 88.1561 136.372 87.4242 136.951 86.5073C137.53 85.5743 137.819 84.5368 137.819 83.3947V83.3464C137.819 82.14 137.538 81.0703 136.975 80.1373C136.428 79.2043 135.672 78.4804 134.707 77.9657C133.758 77.4348 132.68 77.1694 131.473 77.1694C130.267 77.1694 129.173 77.4348 128.192 77.9657C127.211 78.4804 126.439 79.1962 125.876 80.1131C125.313 81.0301 125.031 82.0756 125.031 83.2499V83.2982H123.559V77.3866H124.066C124.532 76.3088 125.208 75.3517 126.093 74.5152C126.994 73.6788 128.071 73.0192 129.326 72.5366C130.597 72.038 132.012 71.7887 133.573 71.7887C135.825 71.7887 137.795 72.2793 139.484 73.2605C141.189 74.2257 142.517 75.5608 143.466 77.2659C144.431 78.971 144.913 80.9094 144.913 83.081V83.1293C144.913 85.51 144.334 87.6173 143.176 89.4511C142.018 91.2688 140.425 92.7004 138.399 93.746C136.388 94.7916 134.087 95.3144 131.498 95.3144Z" fill="black"/>
<path d="M218.941 113.245C218.941 54.8712 171.619 7.54968 113.245 7.54968C54.8712 7.54968 7.54968 54.8712 7.54968 113.245" stroke="#88919F" stroke-opacity="0.2" stroke-width="15.0994"/>
<path d="M7.54968 113.245C7.54968 54.8712 54.8712 7.54968 113.245 7.54968C150.35 7.54968 182.989 26.669 201.848 55.5932" stroke="#00B138" stroke-width="15.0994"/>
</svg>
