<svg width="119" height="28" viewBox="0 0 119 28" fill="none" xmlns="http://www.w3.org/2000/svg">
<g clip-path="url(#clip0_218_1010)">
<path d="M14.5105 6.75813H4.40689V11.1292H11.8234V14.8912H4.40689V20.3371H14.9046V24.314H0V2.74536H14.5105V6.75813Z" fill="#20192A"/>
<path d="M32.6755 8.1554L24.6857 24.7081H23.2168L15.1912 8.1554H19.8489L23.9333 17.2916L28.0178 8.1554H32.6755Z" fill="#20192A"/>
<path d="M49.0132 17.7216H37.6914C38.2289 19.7638 39.877 20.9104 42.2416 20.9104C43.9972 20.9104 45.4304 20.3013 46.756 19.2622L48.5832 22.2718C46.756 23.8124 44.6063 24.6723 42.0983 24.6723C36.9749 24.6723 33.2487 20.982 33.2487 16.2168C33.2487 11.4517 36.939 7.76135 41.7042 7.76135C46.2544 7.76135 49.2998 11.0934 49.2998 15.2853C49.2998 16.2168 49.1565 17.1842 49.0132 17.7216ZM37.6556 14.6046H45.0004C44.9646 12.5624 43.3523 11.3442 41.4892 11.3442C39.662 11.3442 38.1572 12.5982 37.6556 14.6046Z" fill="#20192A"/>
<path d="M62.1979 8.15544V12.0249H61.0156C58.4718 12.0249 56.6804 13.3147 56.6804 16.2526V24.314H52.2735V8.15544H56.3221V10.0902C57.397 8.72869 59.0092 7.97629 60.7648 7.97629C61.3739 7.94047 61.768 8.01212 62.1979 8.15544Z" fill="#20192A"/>
<path d="M80.6495 9.73189C80.6495 13.888 77.425 16.7184 72.8748 16.7184H69.1845V24.314H64.7776V2.74536H72.8748C77.425 2.74536 80.6495 5.50414 80.6495 9.73189ZM69.1845 6.65065V12.849H72.8748C74.917 12.849 76.1352 11.5591 76.1352 9.69606C76.1352 7.90464 74.917 6.61482 72.8748 6.61482H69.1845V6.65065Z" fill="#FFB301"/>
<path d="M82.441 24.314H86.8479C86.8479 24.314 86.8479 18.0441 86.8479 16.7184C86.8479 14.4971 86.9196 12.5265 88.0661 11.8099C89.0334 11.2008 90.2874 11.4516 91.1832 12.0249L93.5836 8.58538C93.5836 8.58538 92.3655 8.04796 91.3981 7.79716C89.6425 7.36722 87.0987 7.51053 85.4864 8.4779C83.8742 9.44526 82.5485 11.3442 82.4769 13.4939C82.441 14.5329 82.441 24.314 82.441 24.314Z" fill="#FFB301"/>
<path d="M112.895 16.2168C112.895 21.0178 108.99 24.6723 104.189 24.6723C102.397 24.6723 101.036 24.3499 99.8894 23.7408C98.9937 23.2392 98.2413 22.5585 97.453 21.6269C97.2739 21.412 97.0948 21.197 96.9156 20.9462C96.0199 19.7997 92.2938 13.5297 92.2938 13.5297L94.6226 10.0185C94.6226 10.0185 98.922 16.8259 100.212 18.2232C101.717 19.9072 102.72 20.5879 104.26 20.5879C106.661 20.5879 108.452 18.7248 108.452 16.2168C108.452 13.673 106.661 11.7741 104.26 11.7741C103.221 11.7741 102.326 12.0966 101.609 12.6698C100.928 13.2431 100.355 13.888 99.7102 14.7837L97.2022 11.2367C98.7787 9.19449 101.394 7.72552 104.26 7.72552C108.99 7.79718 112.895 11.4517 112.895 16.2168Z" fill="#FFB301"/>
<path d="M99.8893 23.7407C98.9936 23.3108 98.2053 22.5584 97.4529 21.6268C98.2053 22.5225 98.9936 23.2391 99.8893 23.7407Z" fill="#FFB301"/>
<path d="M114.579 6.82984C114.364 6.82984 114.113 6.79401 113.934 6.68653C113.719 6.61487 113.54 6.47156 113.397 6.32825C113.253 6.18493 113.11 5.96996 113.038 5.75499C112.967 5.54002 112.895 5.32505 112.895 5.07425C112.895 4.82345 112.931 4.60848 113.038 4.39351C113.146 4.17854 113.253 3.9994 113.397 3.82026C113.54 3.67695 113.719 3.53363 113.934 3.46198C114.149 3.39032 114.364 3.31866 114.579 3.31866C114.794 3.31866 115.009 3.35449 115.224 3.46198C115.439 3.53363 115.618 3.67695 115.761 3.82026C115.905 3.96357 116.048 4.17854 116.12 4.39351C116.227 4.60848 116.263 4.82345 116.263 5.07425C116.263 5.32505 116.227 5.54002 116.12 5.75499C116.012 5.96996 115.905 6.1491 115.761 6.32825C115.618 6.47156 115.439 6.61487 115.224 6.68653C115.009 6.79401 114.794 6.82984 114.579 6.82984ZM114.579 6.50739C114.758 6.50739 114.937 6.47156 115.116 6.3999C115.296 6.32824 115.403 6.22076 115.546 6.11327C115.654 6.00579 115.761 5.86248 115.833 5.68333C115.905 5.54002 115.941 5.36088 115.941 5.18174V5.0026C115.941 4.82345 115.905 4.68014 115.833 4.501C115.761 4.35769 115.69 4.21437 115.546 4.07106C115.403 3.92775 115.296 3.85609 115.116 3.78443C114.937 3.71278 114.794 3.67695 114.579 3.67695C114.4 3.67695 114.221 3.71278 114.042 3.78443C113.863 3.85609 113.755 3.96357 113.612 4.07106C113.468 4.17854 113.397 4.32186 113.325 4.501C113.253 4.64431 113.218 4.82345 113.218 5.0026V5.18174C113.218 5.36088 113.253 5.50419 113.325 5.68333C113.397 5.82665 113.468 5.96996 113.612 6.11327C113.719 6.22076 113.863 6.32824 114.042 6.3999C114.185 6.47156 114.364 6.50739 114.579 6.50739ZM114.257 6.00579H113.898V4.21437H114.651C114.83 4.21437 114.937 4.2502 115.045 4.35769C115.152 4.46517 115.188 4.57266 115.188 4.7518C115.188 4.89511 115.152 5.0026 115.081 5.07425C115.009 5.14591 114.937 5.21757 114.83 5.25339L115.26 5.96996H114.866L114.507 5.28922H114.221V6.00579H114.257ZM114.687 5.03842C114.83 5.03842 114.866 4.96677 114.866 4.85928V4.68014C114.866 4.57266 114.794 4.501 114.687 4.501H114.292V5.03842H114.687Z" fill="#FFB301"/>
</g>
<defs>
<clipPath id="clip0_218_1010">
<rect width="118.05" height="27.4535" fill="white"/>
</clipPath>
</defs>
</svg>
